<svg xmlns="http://www.w3.org/2000/svg" xmlns:xlink="http://www.w3.org/1999/xlink" version="1.1" x="0px" y="0px" viewBox="0 0 100 100" enable-background="new 0 0 100 100" xml:space="preserve"><path d="M84.748,75.241l-6.379-7.507c-3.786-4.454-5.627-9.461-5.627-15.307v-9.033c0-9.722-6.583-17.915-15.521-20.409  c0.057-0.362,0.097-0.729,0.097-1.107c0-4.034-3.282-7.316-7.317-7.316c-4.034,0-7.315,3.282-7.315,7.316  c0,0.378,0.04,0.745,0.097,1.107c-8.938,2.494-15.521,10.688-15.521,20.409v9.033c0,5.846-1.841,10.853-5.627,15.307l-6.383,7.507  h20.464c1.428,5.818,7.274,10.197,14.285,10.197s12.857-4.379,14.285-10.197H84.748z M46.938,21.878  c0-1.689,1.374-3.064,3.063-3.064c1.69,0,3.065,1.375,3.065,3.064c0,0.133-0.03,0.257-0.047,0.386  c-0.492-0.034-0.982-0.075-1.483-0.075h-3.068c-0.501,0-0.991,0.041-1.483,0.075C46.968,22.135,46.938,22.011,46.938,21.878z   M24.875,70.488c4.467-5.256,6.639-11.164,6.639-18.061v-9.033c0-9.349,7.605-16.954,16.954-16.954h3.068  c9.349,0,16.954,7.605,16.954,16.954v9.033c0,6.896,2.172,12.805,6.639,18.061l0.426,0.501H24.449L24.875,70.488z M50.001,81.187  c-4.585,0-8.469-2.497-9.845-5.945h19.689C58.47,78.689,54.586,81.187,50.001,81.187z"></path></svg>