<svg xmlns="http://www.w3.org/2000/svg" xmlns:xlink="http://www.w3.org/1999/xlink" version="1.1" x="0px" y="0px" viewBox="0 0 100 100" enable-background="new 0 0 100 100" xml:space="preserve"><path fill="#000000" d="M15.556,86.238c-0.854,0-3.122,0-3.931-1.798c-1.171-2.598,0.5-4.003,1.398-4.757  c0.259-0.217,0.564-0.471,0.898-0.807c2.486-2.506,3.728-5.23,4.309-6.935C9.819,65.586,5.029,56.874,5.029,47.826  c0-18.783,20.174-34.064,44.97-34.064c11.896,0,23.099,3.468,31.556,9.765c8.651,6.442,13.416,15.073,13.416,24.3  c0,18.778-20.174,34.057-44.972,34.057c-5.975,0-11.77-0.872-17.248-2.598C27.254,84.329,19.433,86.238,15.556,86.238z   M49.999,18.251c-22.319,0-40.48,13.268-40.48,29.575c0,8.136,4.469,15.729,12.584,21.381c0.75,0.521,1.109,1.447,0.905,2.339  c-0.388,1.708-1.686,6.014-5.456,10.034c3.804-0.578,9.42-2.653,12.973-6.398c0.605-0.637,1.527-0.86,2.357-0.579  c5.396,1.853,11.153,2.79,17.116,2.79c22.322,0,40.48-13.262,40.48-29.566c0-7.773-4.119-15.124-11.608-20.7  C71.187,21.404,60.935,18.251,49.999,18.251z"></path></svg>