<svg xmlns="http://www.w3.org/2000/svg" xmlns:xlink="http://www.w3.org/1999/xlink" version="1.1" x="0px" y="0px" viewBox="0 0 90 90" enable-background="new 0 0 90 90" xml:space="preserve"><g><path d="M60.1,64.7l-12.6-7c4.7-3.7,6-10.9,6-15v-8.4c0-5.6-7.4-11.8-14.9-11.8c-7.5,0-15.1,6.2-15.1,11.8v8.4   c0,3.7,1.6,11.2,6.3,14.9l-12.9,7c0,0-3.4,1.5-3.4,3.4v5.1c0,1.9,1.5,3.4,3.4,3.4h43.3c1.9,0,3.4-1.5,3.4-3.4v-5.1   C63.5,66.1,60.1,64.7,60.1,64.7z M59.5,72.5h-42v-3.6c0.3-0.2,0.7-0.5,1-0.6c0.1,0,0.2-0.1,0.3-0.1l12.9-7c1.2-0.6,2-1.8,2.1-3.2   c0.1-1.3-0.4-2.6-1.5-3.5c-3.4-2.7-4.8-8.6-4.8-11.8v-8.4c0-2.9,5.4-7.8,11.1-7.8c5.8,0,10.9,4.9,10.9,7.8v8.4   c0,3.1-1,9.1-4.4,11.8c-1.1,0.8-1.6,2.1-1.5,3.5c0.1,1.3,0.9,2.5,2.1,3.2l12.6,7c0.1,0.1,0.3,0.1,0.4,0.2c0.3,0.1,0.7,0.3,0.9,0.5   V72.5z M74.1,54.7l-12.8-7c4.7-3.7,6.1-10.9,6.1-15v-8.4c0-5.6-7.6-11.9-15.1-11.9c-4.8,0-9.8,2.6-12.7,6c1.6,0.1,3.5,0.1,5,0.6   c2.1-1.6,4.8-2.6,7.7-2.6c5.8,0,11.1,4.9,11.1,7.9v8.4c0,3.1-1.2,9.1-4.6,11.8c-1.1,0.8-1.6,2.1-1.5,3.5c0.1,1.3,0.9,2.5,2.1,3.2   l12.8,7c0.1,0.1,0.3,0.1,0.4,0.2c0.3,0.1,0.7,0.3,0.9,0.5v3.6h-8.1c1.2,0.9,1.6,2.2,2.1,4h6.6c1.9,0,3.4-1.5,3.4-3.4v-5   C77.5,56.1,74.1,54.7,74.1,54.7z"></path></g></svg>