<svg xmlns="http://www.w3.org/2000/svg" xmlns:xlink="http://www.w3.org/1999/xlink" version="1.1" x="0px" y="0px" viewBox="0 0 100 100" enable-background="new 0 0 100 100" xml:space="preserve"><g display="none"><path display="inline" d="M44.237,31.614L28.733,47.118c-0.016,0.016-0.036,0.026-0.052,0.043   c-0.558,0.558-0.907,1.244-1.065,1.965c-0.005,0.024-0.016,0.046-0.021,0.07c-0.052,0.262-0.081,0.529-0.081,0.795   c0,0.001,0,0.002,0,0.002s0,0.002,0,0.002c0,0.267,0.028,0.533,0.081,0.795c0.005,0.024,0.015,0.046,0.021,0.07   c0.158,0.721,0.507,1.407,1.065,1.965c0.016,0.016,0.036,0.027,0.052,0.043l15.504,15.504c1.556,1.556,4.101,1.556,5.657,0   c1.556-1.556,1.556-4.101,0-5.657l-8.723-8.723h27.343c2.2,0,4-1.8,4-4s-1.8-4-4-4H41.171l8.723-8.723   c1.556-1.556,1.556-4.101,0-5.657C48.338,30.059,45.793,30.059,44.237,31.614z"></path></g><g display="none"><path display="inline" d="M5,50c0,24.853,20.147,45,45,45c24.852,0,45-20.147,45-45C95,25.147,74.853,5,50,5   C25.147,5,5,25.147,5,50z M49.88,31.62c1.556,1.556,1.556,4.101,0,5.657L41.157,46H68.5c2.2,0,4,1.8,4,4s-1.8,4-4,4H41.157   l8.723,8.723c1.556,1.556,1.556,4.101,0,5.657c-1.556,1.556-4.101,1.556-5.657,0L28.719,52.876   c-0.016-0.016-0.036-0.026-0.052-0.043c-0.558-0.558-0.907-1.244-1.065-1.965c-0.005-0.024-0.016-0.046-0.021-0.07   c-0.052-0.262-0.081-0.529-0.081-0.795c0-0.001,0-0.002,0-0.002s0-0.002,0-0.002c0-0.267,0.028-0.533,0.081-0.795   c0.005-0.024,0.015-0.046,0.021-0.07c0.158-0.721,0.507-1.407,1.065-1.965c0.016-0.016,0.036-0.027,0.052-0.043L44.223,31.62   C45.779,30.064,48.324,30.064,49.88,31.62z"></path></g><g><g><path d="M5,50c0,24.853,20.147,45,45,45c24.852,0,45-20.147,45-45C95,25.148,74.852,5,50,5C25.147,5,5,25.148,5,50z M90,50    c0,22.092-17.909,40-40,40c-22.092,0-40-17.908-40-40c0-22.091,17.908-40,40-40C72.091,10,90,27.909,90,50z"></path><path d="M44.223,31.62L28.719,47.124c-0.016,0.016-0.036,0.026-0.052,0.043c-0.558,0.558-0.907,1.244-1.065,1.965    c-0.005,0.024-0.016,0.046-0.021,0.07c-0.052,0.262-0.081,0.529-0.081,0.795c0,0.001,0,0.002,0,0.002s0,0.002,0,0.002    c0,0.267,0.028,0.533,0.081,0.795c0.005,0.024,0.015,0.046,0.021,0.07c0.158,0.721,0.507,1.407,1.065,1.965    c0.016,0.016,0.036,0.027,0.052,0.043L44.223,68.38c1.556,1.556,4.101,1.556,5.657,0c1.556-1.556,1.556-4.101,0-5.657L41.157,54    H68.5c2.2,0,4-1.8,4-4s-1.8-4-4-4H41.157l8.723-8.723c1.556-1.556,1.556-4.101,0-5.657C48.324,30.064,45.779,30.064,44.223,31.62z    "></path></g></g></svg>