<svg xmlns="http://www.w3.org/2000/svg" xmlns:xlink="http://www.w3.org/1999/xlink" version="1.1" x="0px" y="0px" viewBox="430 230 100 100" enable-background="new 430 230 100 100" xml:space="preserve"><g><g><path d="M467.8,299.7c-8.8,0-17-3.4-23.2-9.6c-12.8-12.8-12.8-33.6,0-46.4c6.2-6.2,14.4-9.6,23.2-9.6c8.8,0,17,3.4,23.2,9.6    c12.8,12.8,12.8,33.6,0,46.4C484.8,296.3,476.6,299.7,467.8,299.7z M467.8,236.9c-8,0-15.5,3.1-21.2,8.8    c-11.7,11.7-11.7,30.7,0,42.4c5.7,5.7,13.2,8.8,21.2,8.8c8,0,15.5-3.1,21.2-8.8c11.7-11.7,11.7-30.7,0-42.4    C483.4,240,475.8,236.9,467.8,236.9z"></path></g><g><path d="M522.5,326c-0.6,0-1.3-0.2-1.8-0.7l-32.5-32.5c-1-1-1-2.6,0-3.5c1-1,2.6-1,3.5,0l32.5,32.5c1,1,1,2.6,0,3.5    C523.8,325.7,523.1,326,522.5,326z"></path></g></g></svg>