<svg xmlns="http://www.w3.org/2000/svg" xmlns:xlink="http://www.w3.org/1999/xlink" version="1.1" x="0px" y="0px" viewBox="0 0 512 512" enable-background="new 0 0 512 512" xml:space="preserve"><g><g><g><path d="M424,404H85.92c-4.959,0-8.983-4.011-9-8.97c-0.001-0.322-0.108-32.447,0-47.614c0.007-0.901,0.148-1.796,0.421-2.654     c4.964-15.663,36.147-32.738,50.471-38.554c9.616-3.904,23.868-6.529,36.442-8.846c6.13-1.13,14.282-2.631,17.493-3.671     c3.366-4.729,9.261-14.559,10.083-17.205c1.237-4.168,4.422-7.339,8.768-8.874c0.053-0.979,0.109-1.949,0.166-2.911     c0.332-5.639,0.648-11.003-0.043-15.983c-4.955-6.616-8.246-14.804-8.64-15.805c-1.367-3.46-2.45-6.797-3.236-9.461     c-8.576-3.153-13.737-11.732-14.023-20.083c-0.109-3.194-0.808-5.877-0.947-6.386c-1.192-3.595-3.434-10.867-4.578-16.263     c-1.494-7.384-0.552-13.154,2.784-17.232c1.206-1.476,2.671-2.655,4.328-3.51c0.065-5.601,0.164-12.647,0.267-14.975     c0.104-2.394-0.323-5.197-0.775-8.167l-0.253-1.683c-0.885-6.013-0.108-11.209,0.643-16.234l0.056-0.374     c1.842-12.36,6.913-23.224,15.071-32.287c2.4-2.67,4.15-4.463,5.842-6.197c1.649-1.69,3.207-3.287,5.433-5.751l0.294-0.326     c4.474-4.957,5.166-5.54,10.582-8.901l1.791-1.114c3.157-1.974,5.432-3.945,7.633-5.853c2.061-1.787,4.007-3.475,6.344-4.855     c6.123-3.613,12.777-5.522,19.246-5.522c2.629,0,5.037,0.265,7.366,0.521c1.931,0.212,3.755,0.412,5.397,0.412     c0.558,0,1.741-0.333,2.786-0.627c2.049-0.576,4.6-1.294,7.618-1.294c1.719,0,3.19,0.233,4.894,0.504     c0.884,0.141,1.946,0.31,3.305,0.484c9.057,1.158,11.515,7.232,12.44,9.519l0.007,0.016l0.62,0.399     c2.858,1.839,2.97,1.91,6.051,3.267c3.503,1.541,5.434,3.074,7.301,4.558c1.094,0.869,2.225,1.767,4.039,2.937     c4.588,2.957,6.63,6.351,7.981,8.597c0.412,0.685,0.838,1.392,1.022,1.521c3.735,2.599,7.432,7.325,10.693,11.495     c1.214,1.553,2.361,3.02,3.127,3.87c4.901,5.44,11.693,26.04,11.893,33.965c0.091,3.604,0.394,9.107,0.661,13.963     c0.224,4.053,0.435,7.881,0.512,10.379c0.056,1.781,0.305,4.21,0.596,6.551c3.494,1.584,7.369,5.224,9.165,13.4     c2.748,12.521-4.477,25.479-6.441,28.693c-0.083,0.325-0.201,0.964-0.3,1.493c-0.394,2.125-0.988,5.337-2.742,9.857     c-0.067,0.174-0.141,0.346-0.219,0.515c-2.728,5.91-6.898,13.419-13.315,15.916c-0.677,2.227-1.857,3.908-2.686,5.088     c-0.127,0.181-0.258,0.357-0.374,0.535c-1.664,4.391-3.849,7.163-5.978,8.997v18.674c0.152,0.201,0.308,0.404,0.465,0.609     c2.613,3.428,5.817,7.629,6.895,13.267c2.395,3.051,11.328,9.897,15.267,12.916c3.778,2.896,6.006,4.603,7.461,6.041     c1.286-0.035,2.692-0.173,4.17-0.318c2.052-0.201,4.174-0.41,6.473-0.41c3.257,0,6.158,0.439,8.869,1.344     c3.205,1.066,5.771,2.984,8.254,4.838c2.66,1.987,5.18,3.87,8.606,4.957c11.331,1.562,16.83,5.591,18.706,7.299     c1.994,1.727,2.897,3.784,3.451,5.121c9.12,2.543,16.693,9.549,17.583,10.394c1.788,1.699,2.801,4.058,2.801,6.524V395     C433,399.971,428.971,404,424,404z M94.896,386H415v-47.236c-2.365-1.722-5.392-3.493-7.891-3.982     c-0.414-0.081-0.822-0.19-1.222-0.329c-6.061-2.103-8.423-6.527-9.511-9.028c-1.263-0.68-4.057-1.872-8.92-2.479     c-0.451-0.057-0.897-0.147-1.334-0.271c-6.923-1.959-11.616-5.466-15.043-8.025c-1.11-0.829-2.631-1.965-3.202-2.192     c-0.831-0.276-1.84-0.41-3.148-0.41c-1.417,0-3.018,0.157-4.713,0.324c-1.967,0.193-4.196,0.412-6.519,0.412     c-6.911,0-10.555-2.77-12.471-5.569c-1.045-0.894-3.403-2.701-5.351-4.193c-14.321-10.975-21.156-16.883-21.967-23.625     c-0.18-1.498-1.821-3.65-3.559-5.928c-0.845-1.108-1.719-2.255-2.58-3.515c-1.023-1.496-1.571-3.267-1.571-5.08v-26.227     c0-2.226,0.778-6.34,5.987-8.881c0.076-0.038,0.166-0.076,0.263-0.129c0.112-0.132,0.497-0.644,0.958-1.913     c0.677-1.858,1.68-3.287,2.412-4.33c0.082-0.116,0.322-0.253,0.409-0.379c0.25-0.993-0.029-1.849,0.971-2.571v-0.003     c-1-3.548,0.779-7.253,3.996-9.235c2.039-1.257,4.318-1.607,6.506-1.146c0.653-1.033,1.444-2.514,2.423-4.61     c1.065-2.8,1.384-4.612,1.708-6.366c0.375-2.024,0.791-4.319,2.153-6.812c0.106-0.194,0.216-0.385,0.335-0.57     c1.49-2.343,5.529-10.314,4.354-15.667c-0.004-0.018-0.009-0.036-0.013-0.054c-4.143-0.278-7.673-3.365-8.36-7.506     c-0.164-0.994-1.617-9.879-1.799-15.69c-0.07-2.283-0.276-6.008-0.493-9.95c-0.288-5.225-0.585-10.628-0.683-14.502     c-0.113-4.502-5.172-19.24-7.422-22.537c-1.147-1.291-2.429-2.93-3.782-4.659c-1.848-2.363-5.287-6.761-6.794-7.809     c-3.343-2.325-4.975-5.037-6.166-7.017c-0.9-1.495-1.236-2.055-2.312-2.748c-2.562-1.652-4.248-2.992-5.479-3.97     c-1.44-1.145-1.979-1.572-3.356-2.179c-4.219-1.856-5.174-2.438-8.541-4.604L282.015,72c-3.233-2.07-4.832-4.707-5.713-6.591     c-0.96-0.137-1.771-0.265-2.483-0.378c-0.871-0.139-1.771-0.281-2.07-0.281c-0.535,0-1.708,0.33-2.743,0.621     c-2.059,0.579-4.62,1.3-7.661,1.3c-2.628,0-5.035-0.265-7.363-0.521c-1.932-0.212-3.757-0.412-5.4-0.412     c-3.207,0-6.791,1.073-10.094,3.022c-0.93,0.549-2.216,1.664-3.706,2.956c-2.467,2.139-5.536,4.8-9.884,7.517l-1.837,1.143     c-3.631,2.254-3.631,2.254-6.711,5.667l-0.299,0.331c-2.459,2.723-4.213,4.52-5.908,6.258c-1.639,1.68-3.186,3.266-5.345,5.666     c-5.755,6.394-9.337,14.099-10.649,22.902l-0.057,0.378c-0.633,4.237-1.132,7.584-0.636,10.96l0.239,1.589     c0.536,3.521,1.144,7.51,0.963,11.663c-0.134,3.048-0.282,16.831-0.328,21.885c-0.026,2.81-1.362,5.446-3.613,7.128     c-1.166,0.871-2.509,1.435-3.907,1.668c0.033,0.188,0.07,0.388,0.113,0.599c0.982,4.631,3.105,11.455,4.089,14.405     c0.025,0.075,0.05,0.151,0.073,0.228c0.155,0.512,1.524,5.166,1.728,11.05c0.001,0.041,0.271,3.96,3.277,3.96     c4.205,0,7.851,2.912,8.778,7.015c0.012,0.053,1.413,6.145,3.961,12.587c0.89,2.249,3.913,8.909,7.206,12.75     c1,1.166,1.685,2.569,1.989,4.076c1.58,7.827,1.138,15.348,0.709,22.62c-0.202,3.437-0.394,6.682-0.363,9.841     c0.046,4.934-3.89,8.985-8.823,9.082c-0.54,0.005-1.073-0.027-1.591-0.108c-3.205,7.229-10.697,18.574-13.017,21.539     c-3.405,4.349-9.301,5.612-27.424,8.951c-11.146,2.053-25.019,4.608-32.932,7.821c-18.823,7.643-36.465,20.775-39.675,26.414     C94.851,359.58,94.873,375.905,94.896,386z M200.374,275.969c0.045,1.434,0.406,2.705,0.973,3.799     C200.763,278.624,200.417,277.336,200.374,275.969z"></path></g></g></g></svg>