<svg xmlns="http://www.w3.org/2000/svg" xmlns:xlink="http://www.w3.org/1999/xlink" version="1.1" x="0px" y="0px" viewBox="0 0 100 100" style="enable-background:new 0 0 100 100;" xml:space="preserve"><g><path d="M84.7,15.3c-1.8-1.8-4.6-1.8-6.4,0L50,43.6L21.7,15.3c-1.8-1.8-4.6-1.8-6.4,0c-1.8,1.8-1.8,4.6,0,6.4L43.6,50L15.3,78.3   c-1.8,1.8-1.8,4.6,0,6.4c0.9,0.9,2,1.3,3.2,1.3s2.3-0.4,3.2-1.3L50,56.4l28.3,28.3c0.9,0.9,2,1.3,3.2,1.3s2.3-0.4,3.2-1.3   c1.8-1.8,1.8-4.6,0-6.4L56.4,50l28.3-28.3C86.4,19.9,86.4,17.1,84.7,15.3z"></path></g></svg>