<svg xmlns="http://www.w3.org/2000/svg" xmlns:xlink="http://www.w3.org/1999/xlink" version="1.1" x="0px" y="0px" viewBox="0 0 100 100" enable-background="new 0 0 100 100" xml:space="preserve"><path d="M57.1,64.9c0-3.9-3.2-7.1-7.1-7.1s-7.1,3.2-7.1,7.1c0,3.2,2.2,6,5.1,6.8v6.5c0,0.7,0.9,1.3,2,1.3s2-0.6,2-1.3v-6.5  C55,70.8,57.1,68.1,57.1,64.9z M50,68c-1.7,0-3.1-1.4-3.1-3.1s1.4-3.1,3.1-3.1c1.7,0,3.1,1.4,3.1,3.1S51.7,68,50,68z"></path><path d="M77.1,40.8h-5.7V26.6c0-11.8-9.6-21.4-21.4-21.4s-21.4,9.6-21.4,21.4v14.2h-5.7c-3.7,0-6.6,3-6.6,6.6v40.9  c0,3.7,3,6.6,6.6,6.6h54.2c3.7,0,6.6-3,6.6-6.6V47.5C83.8,43.8,80.8,40.8,77.1,40.8z M32.6,26.6C32.6,17,40.4,9.2,50,9.2  c9.6,0,17.4,7.8,17.4,17.4v14.2H32.6V26.6z M79.8,88.4c0,1.5-1.2,2.6-2.6,2.6H22.9c-1.5,0-2.6-1.2-2.6-2.6V47.5  c0-1.5,1.2-2.6,2.6-2.6h54.2c1.5,0,2.6,1.2,2.6,2.6V88.4z"></path></svg>