<svg xmlns="http://www.w3.org/2000/svg" xmlns:xlink="http://www.w3.org/1999/xlink" version="1.1" x="0px" y="0px" viewBox="0 0 100 100" enable-background="new 0 0 100 100" xml:space="preserve"><g display="none"><path display="inline" d="M67.081,58.912l0-21.926c0-0.023,0.007-0.044,0.007-0.067c0-0.789-0.238-1.521-0.636-2.142   c-0.013-0.021-0.021-0.044-0.035-0.065c-0.148-0.223-0.317-0.431-0.505-0.62c-0.001-0.001-0.001-0.001-0.001-0.002   c-0.001-0.001-0.001-0.001-0.002-0.001c-0.189-0.189-0.397-0.357-0.62-0.505c-0.021-0.014-0.044-0.022-0.065-0.035   c-0.621-0.398-1.354-0.636-2.142-0.636c-0.023,0-0.044,0.006-0.067,0.007l-21.926,0c-2.2,0-4,1.8-4,4c0,2.2,1.8,4,4,4l12.336,0   L34.09,60.253c-1.556,1.556-1.556,4.101,0,5.657c1.556,1.556,4.101,1.556,5.657,0l19.335-19.335l0,12.336c0,2.2,1.8,4,4,4   C65.281,62.912,67.081,61.112,67.081,58.912z"></path></g><g display="none"><path display="inline" d="M81.82,18.18c-17.574-17.574-46.066-17.574-63.64,0c-17.573,17.573-17.574,46.066,0,63.64   c17.573,17.573,46.066,17.573,63.64,0C99.394,64.246,99.393,35.754,81.82,18.18z M63.081,62.912c-2.2,0-4-1.8-4-4l0-12.336   L39.747,65.91c-1.556,1.556-4.101,1.556-5.657,0c-1.556-1.556-1.556-4.101,0-5.657l19.335-19.335l-12.336,0c-2.2,0-4-1.8-4-4   c0-2.2,1.8-4,4-4l21.926,0c0.023,0,0.044-0.007,0.067-0.007c0.789,0,1.521,0.238,2.142,0.636c0.021,0.013,0.044,0.021,0.065,0.035   c0.223,0.148,0.431,0.317,0.62,0.505c0.001,0.001,0.001,0.001,0.002,0.001c0.001,0.001,0.001,0.001,0.001,0.002   c0.189,0.189,0.357,0.397,0.505,0.62c0.014,0.021,0.022,0.044,0.035,0.065c0.398,0.621,0.636,1.354,0.636,2.142   c0,0.023-0.006,0.044-0.007,0.067l0,21.926C67.081,61.112,65.281,62.912,63.081,62.912z"></path></g><g><g><path d="M95,50C95,25.147,74.853,5,50,5C25.147,5,5,25.147,5,50c0,24.852,20.148,45,45,45C74.853,95,95,74.852,95,50z M10,50    c0-22.092,17.909-40,40-40c22.092,0,40,17.908,40,40c0,22.091-17.908,40-40,40C27.909,90,10,72.091,10,50z"></path><path d="M55.777,68.38l15.504-15.504c0.016-0.016,0.036-0.026,0.052-0.043c0.558-0.558,0.907-1.244,1.065-1.965    c0.005-0.024,0.016-0.046,0.021-0.07c0.052-0.262,0.081-0.529,0.081-0.795c0-0.001,0-0.002,0-0.002s0-0.002,0-0.002    c0-0.267-0.028-0.533-0.081-0.795c-0.005-0.024-0.015-0.046-0.021-0.07c-0.158-0.721-0.507-1.407-1.065-1.965    c-0.016-0.016-0.036-0.027-0.052-0.043L55.777,31.62c-1.556-1.556-4.101-1.556-5.657,0c-1.556,1.556-1.556,4.101,0,5.657    L58.843,46H31.5c-2.2,0-4,1.8-4,4s1.8,4,4,4h27.343l-8.723,8.723c-1.556,1.556-1.556,4.101,0,5.657    C51.676,69.936,54.221,69.936,55.777,68.38z"></path></g></g></svg>