<svg xmlns:dc="http://purl.org/dc/elements/1.1/" xmlns:cc="http://creativecommons.org/ns#" xmlns:rdf="http://www.w3.org/1999/02/22-rdf-syntax-ns#" xmlns:svg="http://www.w3.org/2000/svg" xmlns="http://www.w3.org/2000/svg" xmlns:sodipodi="http://sodipodi.sourceforge.net/DTD/sodipodi-0.dtd" xmlns:inkscape="http://www.inkscape.org/namespaces/inkscape" version="1.1" x="0px" y="0px" viewBox="0 0 100 100"><g transform="translate(0,-952.36218)"><path style="font-size:medium;font-style:normal;font-variant:normal;font-weight:normal;font-stretch:normal;text-indent:0;text-align:start;text-decoration:none;line-height:normal;letter-spacing:normal;word-spacing:normal;text-transform:none;direction:ltr;block-progression:tb;writing-mode:lr-tb;text-anchor:start;baseline-shift:baseline;opacity:1;color:#000000;fill:#000000;fill-opacity:1;stroke:none;stroke-width:4;marker:none;visibility:visible;display:inline;overflow:visible;enable-background:accumulate;font-family:Sans;-inkscape-font-specification:Sans" d="M 50 22 C 31.341503 22 15.093209 32.297288 7 47.46875 C 7 47.46875 6.3256413 48.81606 6.15625 49.21875 C 6.0560035 49.457065 6 49.725241 6 50 C 6 50.271505 6.05824 50.545209 6.15625 50.78125 C 6.3245017 51.18646 7 52.46875 7 52.46875 C 15.088234 67.653935 31.332057 78 50 78 C 68.667943 78 84.911766 67.65395 93 52.46875 C 93 52.46875 93.675498 51.18645 93.84375 50.78125 C 93.94176 50.54525 94 50.2715 94 50 C 94 49.7252 93.943996 49.45705 93.84375 49.21875 C 93.674359 48.81605 93 47.46875 93 47.46875 C 84.906791 32.29729 68.658497 22 50 22 z M 50 26 C 67.417934 26 82.392525 35.78024 89.6875 49.96875 C 82.396469 64.16935 67.426078 74 50 74 C 32.573922 74 17.603531 64.16935 10.3125 49.96875 C 17.607475 35.78021 32.582066 26 50 26 z M 50 34 C 41.18714 34 34 41.18709 34 50 C 34 58.8128 41.187121 66 50 66 C 58.812879 66 66 58.8128 66 50 C 66 41.18707 58.81286 34 50 34 z M 50 38 C 56.651106 38 62 43.34883 62 50 C 62 56.651 56.651087 62 50 62 C 43.348913 62 38 56.651 38 50 C 38 43.34885 43.348894 38 50 38 z " transform="translate(0,952.36218)"></path></g></svg>